<svg xmlns="http://www.w3.org/2000/svg" version="1.0"
     width="385pt" height="278pt" viewBox="0 0 385 278"
     preserveAspectRatio="xMidYMid meet">

  <!-- Buchstaben in Weiß -->
  <g transform="translate(0,278) scale(0.1,-0.1)" fill="#FFFFFF" stroke="none">
    <path d="M3089 2458 c264 -81 426 -278 439 -538 10 -205 -73 -376 -219 -449 l-59 -30 64 -31 c81 -40 163 -113 215 -191 116 -174 128 -425 28 -614 -67 -125 -215 -248 -357 -295 -71 -24 -192 -35 -375 -35 -66 0 -480 1 -921 3 l-801 2 -78 217 c-131 369 -675 1962 -675 1979 0 2 102 4 228 4 l227 0 223 -667 c279 -833 306 -913 312 -913 3 0 124 356 269 790 l264 790 481 3 c580 4 648 2 735 -25z"/>
  </g>

  <!-- Blitz in Schwarz -->
  <g transform="translate(0,278) scale(0.1,-0.1)" fill="#000000" stroke="none">
    <path d="M2204 2035 c-7 -16 -52 -138 -100 -270 -47 -132 -117 -317 -155 -412 -38 -95 -69 -175 -69 -178 0 -3 62 -5 138 -5 76 0 141 -2 144 -5 6 -6 -58 -155 -258 -604 -62 -140 -112 -256 -111 -256 1 -1 127 129 279 289 153 160 396 415 542 566 l264 275 -37 7 c-20 4 -127 7 -238 7 -186 1 -225 6 -193 26 19 12 484 548 502 580 4 7 -113 10 -344 10 l-351 0 -13 -30z"/>
  </g>
</svg>
